<?xml version="1.0" encoding="UTF-8" standalone="no"?>
<svg
   xmlns:dc="http://purl.org/dc/elements/1.1/"
   xmlns:cc="http://creativecommons.org/ns#"
   xmlns:rdf="http://www.w3.org/1999/02/22-rdf-syntax-ns#"
   xmlns:svg="http://www.w3.org/2000/svg"
   xmlns="http://www.w3.org/2000/svg"
   xmlns:sodipodi="http://sodipodi.sourceforge.net/DTD/sodipodi-0.dtd"
   xmlns:inkscape="http://www.inkscape.org/namespaces/inkscape"
   inkscape:version="1.0 (4035a4fb49, 2020-05-01)"
   sodipodi:docname="github.svg"
   viewBox="0 0 682.66667 682.66667"
   height="512pt"
   width="512pt"
   xml:space="preserve"
   id="svg847"
   version="1.1"><metadata
     id="metadata853"><rdf:RDF><cc:Work
         rdf:about=""><dc:format>image/svg+xml</dc:format><dc:type
           rdf:resource="http://purl.org/dc/dcmitype/StillImage" /><dc:title></dc:title></cc:Work></rdf:RDF></metadata><defs
     id="defs851"><inkscape:path-effect
       fuse_tolerance="0"
       hide_knot="false"
       vertical_pattern="false"
       prop_units="false"
       tang_offset="0"
       normal_offset="0"
       spacing="0"
       scale_y_rel="false"
       prop_scale="0.495397"
       copytype="single_stretched"
       pattern="m -1847.1429,551.98596 h 544.2858 c 73.6028,0 132.8571,-59.25429 132.8571,-132.85715 v -544.2857 c 0,-73.60286 -59.2543,-132.85715 -132.8571,-132.85715 h -544.2858 c -73.6028,0 -132.8571,59.25429 -132.8571,132.85715 v 544.2857 c 0,73.60286 59.2543,132.85715 132.8571,132.85715 z"
       lpeversion="1"
       is_visible="true"
       id="path-effect2633"
       effect="skeletal" /><clipPath
       id="clipPath865"
       clipPathUnits="userSpaceOnUse"><path
         id="path863"
         d="M 0,551.986 H 530.973 V 0 H 0 Z" /></clipPath></defs><sodipodi:namedview
     units="pt"
     inkscape:current-layer="g855"
     inkscape:window-maximized="1"
     inkscape:window-y="-8"
     inkscape:window-x="-8"
     inkscape:cy="436.00632"
     inkscape:cx="492.36872"
     inkscape:zoom="0.70710678"
     inkscape:bbox-paths="true"
     inkscape:bbox-nodes="true"
     inkscape:snap-bbox-edge-midpoints="true"
     inkscape:snap-bbox-midpoints="true"
     inkscape:snap-smooth-nodes="true"
     inkscape:snap-intersection-paths="true"
     inkscape:object-paths="true"
     inkscape:snap-bbox="true"
     showgrid="false"
     id="namedview849"
     inkscape:window-height="1017"
     inkscape:window-width="1920"
     inkscape:pageshadow="2"
     inkscape:pageopacity="0"
     guidetolerance="10"
     gridtolerance="10"
     objecttolerance="10"
     borderopacity="1"
     bordercolor="#666666"
     pagecolor="#ffffff"
     inkscape:document-rotation="0"><inkscape:grid
       id="grid1567"
       type="xygrid" /><sodipodi:guide
       id="guide846"
       orientation="0,682.66667"
       position="0,682.66665" /><sodipodi:guide
       id="guide848"
       orientation="682.66667,0"
       position="682.66665,682.66665" /><sodipodi:guide
       id="guide850"
       orientation="0,-682.66667"
       position="682.66665,0" /><sodipodi:guide
       id="guide852"
       orientation="-682.66667,0"
       position="0,0" /></sodipodi:namedview><g
     transform="matrix(1.3333333,0,0,-1.3333333,0,735.98133)"
     inkscape:label="GitHub-Mark"
     inkscape:groupmode="layer"
     id="g855"><g
       transform="matrix(6.7012584,0,0,6.7012584,156.19571,-40.469662)"
       id="g875" /><g
       transform="matrix(6.7012584,0,0,6.7012584,172.589,-58.754046)"
       id="g879" /><g
       transform="matrix(6.7012584,0,0,6.7012584,188.54401,-82.057671)"
       id="g883" /><g
       transform="matrix(6.7012584,0,0,6.7012584,210.40151,-104.57658)"
       id="g887" /><g
       transform="matrix(6.7012584,0,0,6.7012584,240.55718,-117.65141)"
       id="g891" /><g
       transform="matrix(6.7012584,0,0,6.7012584,273.67747,-120.07324)"
       id="g895" /><g
       transform="matrix(1.3653333,0,0,1.3653333,-8.5487989e-6,-201.65886)"
       id="g856"><path
         d="m 368.57985,484.9122 c -3.41322,31.98051 -28.67034,57.24334 -60.65373,60.65368 -80.20585,8.56018 -160.64638,8.56018 -240.849432,0 -31.98336,-3.4132 -57.2433296,-28.67317 -60.6565296,-60.65368 -8.56018,-80.20305 -8.56018,-160.64642 0,-240.84953 3.4132,-31.98334 28.6731696,-57.24332 60.6536796,-60.65652 80.203032,-8.56021 160.646432,-8.56021 240.852282,0 31.98339,3.4132 57.24051,28.67318 60.65373,60.65652 8.56018,80.20311 8.56018,160.6436 0,240.84953 z m 0,0"
         fill="url(#a)"
         id="path846"
         style="opacity:1;fill:#171515;fill-opacity:1;stroke-width:0.732422" /><path
         sodipodi:nodetypes="sccscccscccccsscscccccssccccssccccssccccssssccccssccccssccccsssccccc"
         id="rect2140"
         style="opacity:1;fill:#ffffff;fill-opacity:1;stroke-width:0;stroke-linecap:round;stroke-linejoin:round"
         d="m 97.175375,484.99849 c -2.733269,-0.0349 -4.048852,-0.45523 -4.048852,-0.45523 C 82.36829,457.26065 89.148103,437.11525 91.20463,432.12645 78.534195,418.25553 70.796794,400.58278 70.796794,378.96139 c 0,-75.89477 46.246976,-92.88189 90.240936,-97.88708 -5.66447,-4.94616 -10.79383,-13.68712 -12.57484,-26.48545 -11.30269,-5.06097 -39.97276,-13.81497 -57.638574,16.46224 0,0 -10.473068,19.01711 -30.362694,20.41438 0,0 -19.32554,0.25288 -1.354708,-12.04038 0,0 12.982309,-6.09105 21.992336,-28.98182 0,0 11.627123,-35.35122 66.73029,-23.36958 0.0854,-16.55059 -0.35849,-45.36785 -0.35849,-50.08771 10.11215,0 88.49423,0 98.66149,0 0,3.7231 0.17742,7.93694 0.17742,13.2111 0,6.5238 0.22616,27.85345 0.22616,54.35545 0,18.47923 -6.32997,30.53294 -13.43434,36.67955 44.10549,4.90355 90.44165,21.65086 90.44165,97.7293 0,21.62139 -7.68169,39.29414 -20.38166,53.16506 2.05653,4.9888 8.83603,25.1342 -1.94517,52.41681 0,0 -16.60964,5.3195 -54.41432,-20.30674 -15.82905,4.38859 -32.78676,6.59009 -49.61945,6.6688 -16.83269,-0.0786 -33.77701,-2.28021 -49.57652,-6.6688 -27.2028,18.41885 -43.44596,20.85077 -50.430935,20.76197 z M 68.954885,288.38085 c 0.512256,0.004 1.074469,-0.11614 1.620841,-0.37304 1.457041,-0.65532 2.288963,-2.02951 1.786642,-3.03081 -0.44243,-1.0013 -2.012685,-1.30046 -3.443113,-0.61521 -1.46035,0.65868 -2.275743,2.01935 -1.803356,3.02068 0.270279,0.64034 0.985249,0.99182 1.838986,0.99838 z m 8.2453,-6.91095 c 0.88882,-0.028 1.906343,-0.51941 2.727596,-1.39471 1.317318,-1.41712 1.573587,-3.27314 0.572264,-4.17464 -0.958029,-0.8882 -2.834485,-0.47595 -4.101917,0.92783 -1.317319,1.40052 -1.560367,3.27722 -0.589002,4.17541 0.370495,0.33307 0.857778,0.48294 1.391059,0.46611 z m 8.024965,-10.26829 c 1.093593,-0.0388 2.3385,-0.79097 3.224989,-2.03533 1.227483,-1.8163 1.227622,-3.95857 -0.02982,-4.83345 -1.230836,-0.85825 -3.246829,-0.0571 -4.490966,1.72922 -1.230836,1.78966 -1.230953,3.93228 0.02982,4.79053 0.311035,0.21455 0.668462,0.32722 1.049298,0.34759 0.0714,0.004 0.143859,0.004 0.216679,9e-4 z m 9.420414,-11.42154 c 1.115887,0.0526 2.442699,-0.46652 3.523819,-1.4936 1.743138,-1.61672 2.271877,-3.93143 1.100942,-5.1323 -1.101094,-1.21422 -3.44635,-0.88845 -5.162863,0.77151 -1.756429,1.61671 -2.245658,3.9152 -1.144551,5.12939 0.419147,0.45659 1.013121,0.69353 1.682653,0.725 z m 14.621056,-8.72959 c 0.54239,-0.006 1.11401,-0.0932 1.68702,-0.27197 2.26872,-0.68527 3.75842,-2.51492 3.28604,-4.11501 -0.48899,-1.57347 -2.74423,-2.28512 -5.01958,-1.61649 -2.27206,0.68862 -3.75894,2.52783 -3.29989,4.11793 0.35428,1.18758 1.71926,1.90347 3.34641,1.88554 z m 33.155,-0.69224 c 1.83324,-0.0507 3.30896,-0.94692 3.55729,-2.29495 0.28609,-1.61339 -1.37377,-3.27337 -3.74563,-3.71581 -2.33191,-0.42914 -4.49083,0.57267 -4.78689,2.17276 -0.28944,1.65665 1.39697,3.31649 3.72888,3.74563 0.29689,0.0516 0.5895,0.0812 0.87549,0.0908 0.12512,0.004 0.24866,0.006 0.37086,9e-4 z m -16.08847,-1.96628 c 2.38849,0.0467 4.34769,-1.28714 4.34769,-2.93047 0.0566,-1.65663 -1.87269,-3.0307 -4.26116,-3.06062 -2.4018,-0.0531 -4.34799,1.28734 -4.37461,2.91736 0,1.67328 1.88962,3.03049 4.28808,3.07373 z" /></g></g></svg>
