<svg xmlns="http://www.w3.org/2000/svg" width="423.557" height="353.151" viewBox="0 0 423.557 353.151">
  <g id="Group_6" data-name="Group 6" transform="translate(-542.443 -2198.257)">
    <g id="man" transform="translate(876.627 2304.321)">
      <path id="Path_36" data-name="Path 36" d="M121.5,623.183h-8.06L109.6,592.654h11.9Z" transform="translate(-87.231 -384.981)" fill="#ffb8b8"/>
      <path id="Path_37" data-name="Path 37" d="M0,9.611H25.333V0H9.788A9.7,9.7,0,0,0,0,9.611H0Z" transform="translate(10.666 235.94)" fill="#2f2e41"/>
      <path id="Path_38" data-name="Path 38" d="M60.28,620.973l-7.99,1.046-7.911-29.763,11.792-1.544Z" transform="translate(16.875 -384.293)" fill="#ffb8b8"/>
      <path id="Path_39" data-name="Path 39" d="M0,9.591l25.325.06L25.3.037,9.762,0A9.645,9.645,0,0,0,0,9.591H0Z" transform="matrix(0.991, -0.132, 0.132, 0.991, 53.478, 237.521)" fill="#2f2e41"/>
      <path id="Path_40" data-name="Path 40" d="M90.162,444.64,44.8,446.577l1.972,112.979L58.6,558.264l9.2-76.826,21.7,81.99,11.835-1.937Z" transform="translate(-24.458 -332.524)" fill="#2f2e41"/>
      <path id="Path_41" data-name="Path 41" d="M225.844,462.094l15.78-3.165,9.862,70.953s-28.929,18.722-38.134-.646Z" transform="translate(-190.384 -417.121)" fill="#fe7575"/>
      <ellipse id="Ellipse_13" data-name="Ellipse 13" cx="16.148" cy="15.856" rx="16.148" ry="15.856" transform="translate(26.194 4.928)" fill="#ffb8b8"/>
      <path id="Path_42" data-name="Path 42" d="M187.822,457.832l23.012,7.1s-11.177,54.875,7.232,83.282c0,0-23.012,23.887-32.874-29.7C185.192,518.518,177.3,475.263,187.822,457.832Z" transform="translate(-136.583 -416.732)" fill="#2f2e41"/>
      <path id="Path_43" data-name="Path 43" d="M273.538,463.832l-17.095,10.329s-9.2,75.535,0,82.636S273.538,463.832,273.538,463.832Z" transform="translate(-238.078 -418.858)" fill="#2f2e41"/>
      <path id="Path_44" data-name="Path 44" d="M290.817,607.248a6.418,6.418,0,0,0-.637-9.935l6.95-22.038-11.725,3.344-4.8,20.415A6.447,6.447,0,0,0,282,607.6a6.739,6.739,0,0,0,8.822-.348Z" transform="translate(-279.559 -458.355)" fill="#ffb8b8"/>
      <path id="Path_45" data-name="Path 45" d="M194.081,597.955a6.418,6.418,0,0,0,.664-9.933l9.766-20.983-12.064,1.843-7.424,19.643a6.439,6.439,0,0,0,.264,8.666,6.737,6.737,0,0,0,8.795.764Z" transform="translate(-123.766 -455.436)" fill="#ffb8b8"/>
      <path id="Path_46" data-name="Path 46" d="M31.713,346.286l5.917-.646,15.122,48.419L37.631,427.63l-11.835-7.1,13.15-27.76-10.52-29.7Z" transform="translate(36.621 -297.438)" fill="#2f2e41"/>
      <path id="Path_47" data-name="Path 47" d="M141.863,355.64l-3.287.646L122.8,431.82l10.52,3.228L145.808,390.5Z" transform="translate(-120.21 -300.982)" fill="#2f2e41"/>
      <path id="Path_48" data-name="Path 48" d="M236.785,421.465a9.1,9.1,0,0,0-5.552-7.125c-3.108-1.251-6.615-.723-9.965-.483s-7.081.031-9.5-2.259a7.888,7.888,0,0,1-1.639-8.39,12.27,12.27,0,0,1,6.226-6.369,27.212,27.212,0,0,1,8.857-2.3,36.807,36.807,0,0,1,13.441.519c4.365,1.118,3.239,3.515,5.8,7.163s3.324,8.619,1.374,12.612c-1.3,2.672-3.643,4.7-5.92,6.64" transform="translate(-183.346 -394.169)" fill="#2f2e41"/>
    </g>
    <path id="Path_49" data-name="Path 49" d="M626.631,407.6v-.875c-1.772,0-3.571-.036-5.347-.106l-.036.874C623.037,407.563,624.848,407.6,626.631,407.6Zm5.38-.1c1.781-.068,3.589-.173,5.372-.311l-.07-.872c-1.772.138-3.567.241-5.337.309Zm-16.135-.323.071-.872c-1.768-.139-3.558-.315-5.319-.524l-.107.869c1.773.21,3.575.388,5.355.528Zm26.862-.51c1.777-.209,3.57-.455,5.33-.733l-.141-.864c-1.748.276-3.53.52-5.294.728Zm-37.546-.756.142-.864c-1.748-.277-3.517-.595-5.259-.943l-.178.857c1.754.351,3.535.67,5.294.949Zm48.172-.92c1.754-.349,3.521-.737,5.253-1.153l-.212-.85c-1.72.414-3.476.8-5.217,1.145ZM594.647,403.8l.213-.849c-1.726-.417-3.463-.874-5.164-1.358l-.248.841c1.713.487,3.462.947,5.2,1.367Zm69.172-1.326c1.718-.487,3.448-1.014,5.14-1.567l-.282-.831c-1.681.549-3.4,1.073-5.106,1.557ZM584.31,400.86l.282-.83c-1.682-.552-3.376-1.145-5.035-1.765l-.317.818C580.911,399.707,582.616,400.3,584.31,400.86Zm89.734-1.729c1.672-.622,3.356-1.287,5.005-1.977l-.349-.8c-1.639.685-3.311,1.346-4.972,1.963Zm-99.782-2.018.35-.8c-1.629-.683-3.265-1.407-4.861-2.153l-.383.79c1.608.75,3.255,1.479,4.895,2.168Zm109.706-2.133c1.619-.755,3.241-1.551,4.823-2.367l-.415-.774c-1.571.81-3.183,1.6-4.791,2.351Zm-119.4-2.4.415-.774c-1.569-.811-3.142-1.663-4.672-2.533l-.446.757C561.4,390.91,562.984,391.768,564.564,392.585Zm128.947-2.529c1.553-.881,3.1-1.8,4.61-2.74l-.477-.739c-1.5.931-3.037,1.847-4.579,2.723ZM555.264,387.3l.477-.739c-1.494-.929-2.992-1.9-4.453-2.895l-.506.72C552.252,385.385,553.76,386.365,555.264,387.3Zm147.351-2.9c1.474-1,2.944-2.041,4.369-3.094l-.536-.7c-1.416,1.046-2.876,2.08-4.34,3.073Zm-156.2-3.1.536-.7c-1.413-1.043-2.827-2.132-4.2-3.237l-.564.678c1.386,1.112,2.811,2.209,4.233,3.259Zm164.8-3.258c1.383-1.11,2.763-2.263,4.1-3.427l-.591-.655c-1.329,1.156-2.7,2.3-4.073,3.4ZM538.09,374.615l.591-.655c-1.328-1.155-2.65-2.353-3.929-3.559l-.617.632C535.423,372.246,536.753,373.452,538.09,374.615Zm181.189-3.586c1.285-1.213,2.566-2.47,3.806-3.736l-.642-.607c-1.232,1.258-2.5,2.507-3.782,3.711ZM530.328,367.3l.642-.607c-1.228-1.254-2.449-2.552-3.628-3.857l-.667.581c1.187,1.313,2.416,2.62,3.652,3.883Zm196.408-3.885c1.188-1.315,2.362-2.668,3.489-4.022l-.69-.554c-1.119,1.345-2.286,2.689-3.466,3.995Zm-203.553-4.023.69-.554c-1.126-1.352-2.237-2.742-3.3-4.132l-.712.526c1.073,1.4,2.192,2.8,3.326,4.159Zm210.363-4.153c1.074-1.4,2.133-2.84,3.148-4.28l-.733-.5c-1.008,1.431-2.061,2.861-3.127,4.252ZM516.705,350.94l.733-.5c-1.012-1.437-2.007-2.911-2.956-4.381l-.753.468c.958,1.48,1.956,2.964,2.978,4.41Zm222.961-4.385c.955-1.478,1.893-3,2.787-4.512l-.771-.438c-.889,1.506-1.82,3.013-2.769,4.482Zm-228.731-4.55.771-.438c-.892-1.514-1.763-3.063-2.588-4.6l-.789.408c.831,1.551,1.708,3.11,2.606,4.634Zm234.117-4.581c.83-1.548,1.64-3.134,2.407-4.715l-.8-.376c-.762,1.57-1.566,3.146-2.391,4.684Zm-239.136-4.787.805-.376c-.763-1.576-1.5-3.189-2.2-4.8l-.82.344c.7,1.617,1.447,3.241,2.217,4.828ZM749.669,327.9c.7-1.612,1.378-3.256,2.01-4.887l-.833-.311c-.628,1.62-1.3,3.253-2,4.854Zm-247.986-5.01.833-.31c-.632-1.637-1.238-3.305-1.8-4.958l-.845.277c.564,1.664,1.177,3.344,1.809,4.992Zm251.808-4.853c.567-1.663,1.107-3.361,1.605-5.045l-.856-.244c-.494,1.672-1.031,3.358-1.594,5.011Zm-255.219-5.186.856-.243c-.492-1.67-.956-3.376-1.38-5.072l-.865.209c.429,1.707.9,3.426,1.389,5.106Zm258.219-4.964c.428-1.7.826-3.438,1.183-5.155l-.873-.175c-.355,1.706-.75,3.429-1.175,5.121Zm-260.785-5.3.874-.174c-.352-1.7-.674-3.442-.957-5.164l-.88.139c.284,1.734.607,3.483.963,5.2Zm262.938-5.056c.286-1.727.54-3.488.755-5.232l-.885-.105c-.214,1.733-.466,3.481-.75,5.2Zm-264.651-5.378.885-.1c-.212-1.732-.391-3.489-.531-5.223l-.889.069c.142,1.745.321,3.514.534,5.258Zm265.946-5.111c.144-1.748.253-3.523.326-5.275l-.89-.035c-.072,1.741-.181,3.5-.324,5.24Zm-266.8-5.421.89-.035c-.07-1.744-.105-3.51-.105-5.249v-.29h-.891v.288c0,1.752.036,3.53.106,5.285Zm266.348-5.139h.891v-.147c0-1.707-.034-3.436-.1-5.136l-.89.034c.066,1.689.1,3.406.1,5.1Zm-265.445-5.682c.074-1.737.184-3.5.329-5.24l-.889-.071c-.146,1.751-.257,3.526-.331,5.275ZM759.075,266l.889-.068c-.14-1.752-.318-3.522-.529-5.259l-.885.1C758.759,262.5,758.935,264.259,759.075,266Zm-264.162-5.655c.215-1.726.469-3.474.756-5.2l-.88-.141c-.288,1.734-.545,3.494-.761,5.232Zm262.9-4.768.88-.138c-.282-1.733-.6-3.482-.958-5.2l-.873.173C757.211,252.116,757.531,253.855,757.812,255.576Zm-261.173-5.591c.358-1.71.755-3.432,1.181-5.12l-.865-.211c-.429,1.7-.829,3.433-1.189,5.154Zm259.058-4.7.866-.208c-.424-1.7-.889-3.422-1.384-5.108l-.856.242C754.814,241.888,755.276,243.595,755.7,245.286ZM499.211,239.8c.5-1.671,1.034-3.357,1.6-5.009l-.845-.279c-.569,1.664-1.111,3.36-1.61,5.043Zm253.529-4.6.846-.276c-.564-1.666-1.171-3.346-1.806-4.994l-.834.309C751.576,231.875,752.18,233.544,752.74,235.2Zm-250.124-5.353c.633-1.628,1.307-3.26,2-4.852l-.819-.345c-.7,1.6-1.379,3.246-2.016,4.885Zm246.333-4.491.82-.343c-.7-1.617-1.444-3.242-2.211-4.83l-.805.375c.762,1.578,1.5,3.192,2.2,4.8Zm-242.13-5.131c.763-1.569,1.569-3.143,2.4-4.681l-.788-.409c-.833,1.548-1.644,3.133-2.412,4.713Zm237.541-4.373.789-.406c-.831-1.555-1.706-3.115-2.6-4.637l-.772.438c.889,1.512,1.758,3.062,2.583,4.605ZM511.8,210.959c.891-1.506,1.824-3.013,2.773-4.479l-.752-.47c-.956,1.476-1.9,2.993-2.792,4.509Zm227.205-4.212.753-.468c-.956-1.484-1.956-2.969-2.971-4.413l-.733.5c1.009,1.435,2,2.91,2.951,4.384ZM517.53,202.112c1.011-1.43,2.065-2.86,3.132-4.248l-.711-.527c-1.075,1.4-2.136,2.837-3.153,4.277Zm215.4-4.012.712-.526c-1.074-1.4-2.191-2.8-3.32-4.163l-.69.553c1.122,1.35,2.232,2.741,3.3,4.135Zm-208.961-4.36c1.124-1.347,2.292-2.689,3.47-3.991l-.666-.582c-1.187,1.31-2.362,2.662-3.494,4.018Zm202.2-3.778.667-.58c-1.183-1.313-2.41-2.62-3.648-3.887l-.643.606c1.229,1.258,2.448,2.558,3.624,3.861Zm-195.1-4.065c1.233-1.256,2.507-2.5,3.786-3.707l-.617-.632c-1.288,1.212-2.57,2.467-3.811,3.732Zm187.7-3.511.618-.631c-1.286-1.215-2.615-2.422-3.951-3.587l-.592.654c1.327,1.157,2.648,2.356,3.925,3.563Zm-179.976-3.752c1.332-1.156,2.7-2.3,4.077-3.4l-.563-.678c-1.383,1.107-2.764,2.258-4.1,3.422Zm171.984-3.216.565-.677c-1.383-1.112-2.806-2.21-4.229-3.263l-.536.7c1.414,1.047,2.827,2.137,4.2,3.242ZM547.079,172c1.422-1.048,2.883-2.08,4.343-3.069l-.506-.72c-1.47,1-2.941,2.035-4.373,3.089Zm155.163-2.9.508-.719c-1.469-1-2.976-1.982-4.479-2.919l-.478.739c1.493.931,2.99,1.906,4.449,2.9Zm-146.353-3.069c1.5-.932,3.044-1.846,4.583-2.717l-.446-.758c-1.548.877-3.1,1.8-4.613,2.735Zm137.341-2.551.447-.757c-1.541-.877-3.123-1.737-4.7-2.555l-.416.774c1.568.812,3.139,1.666,4.67,2.538Zm-128.067-2.7c1.574-.81,3.186-1.6,4.793-2.346l-.381-.791c-1.618.752-3.242,1.547-4.826,2.362Zm118.63-2.188.383-.79c-1.607-.752-3.253-1.483-4.892-2.173l-.351.8c1.628.685,3.263,1.411,4.859,2.159Zm-108.948-2.313c1.638-.683,3.311-1.342,4.974-1.958l-.315-.819c-1.674.621-3.359,1.284-5.007,1.971Zm99.145-1.809.317-.818c-1.667-.624-3.372-1.224-5.067-1.782l-.283.83c1.683.554,3.377,1.15,5.033,1.77Zm-89.118-1.908c1.684-.548,3.4-1.07,5.108-1.551l-.246-.841c-1.717.484-3.446,1.009-5.141,1.561Zm78.983-1.431.249-.84c-1.714-.49-3.463-.952-5.2-1.373l-.214.849c1.724.419,3.461.878,5.163,1.364Zm-68.708-1.467c1.721-.412,3.477-.8,5.219-1.14l-.176-.858c-1.754.347-3.522.733-5.254,1.147Zm58.33-1.053.179-.857c-1.747-.351-3.528-.673-5.294-.955l-.144.864c1.754.281,3.523.6,5.258.949Zm-47.85-1.018c1.753-.274,3.534-.517,5.3-.722l-.1-.869c-1.773.206-3.567.451-5.331.727Zm37.3-.671.108-.869c-1.773-.212-3.574-.392-5.354-.533l-.072.872C639.377,146.537,641.166,146.715,642.927,146.926Zm-26.684-.564c1.767-.135,3.563-.237,5.337-.3l-.034-.875c-1.787.067-3.594.169-5.372.305Zm16.028-.286.036-.874c-1.782-.072-3.592-.11-5.381-.113v.875C628.7,145.966,630.5,146,632.272,146.075Z" transform="translate(57.958 2053.169)" fill="#8f8f8f"/>
    <ellipse id="Ellipse_14" data-name="Ellipse 14" cx="85.996" cy="84.441" rx="85.996" ry="84.441" transform="translate(631.87 2245.544)" fill="#3f3d56"/>
    <ellipse id="Ellipse_15" data-name="Ellipse 15" cx="58.172" cy="60.69" rx="58.172" ry="60.69" transform="translate(677.716 2270.295)" fill="#fff"/>
    <ellipse id="Ellipse_16" data-name="Ellipse 16" cx="19.246" cy="19.688" rx="19.246" ry="19.688" transform="translate(729.781 2334.366)" fill="#3f3d56"/>
    <ellipse id="Ellipse_17" data-name="Ellipse 17" cx="8.466" cy="8.313" rx="8.466" ry="8.313" transform="translate(542.443 2323.515)" fill="#fe7575"/>
    <ellipse id="Ellipse_18" data-name="Ellipse 18" cx="12.476" cy="12.251" rx="12.476" ry="12.251" transform="translate(584.225 2214.037)" fill="#fe7575"/>
    <ellipse id="Ellipse_19" data-name="Ellipse 19" cx="8.466" cy="8.313" rx="8.466" ry="8.313" transform="translate(645.501 2447.076)" fill="#fe7575"/>
  </g>
</svg>
