<svg id="undraw_Mobile_life_re_jtih" xmlns="http://www.w3.org/2000/svg" width="401.167" height="323.455" viewBox="0 0 401.167 323.455">
  <circle id="Ellipse_20" data-name="Ellipse 20" cx="46.06" cy="46.06" r="46.06" transform="translate(68.221 125.478)" fill="#e6e6e6"/>
  <path id="Path_50" data-name="Path 50" d="M387.709,532.189l11.33,7.021V491.752l-12.7-7.87a4.926,4.926,0,0,1-2.15-2.862h0a4.926,4.926,0,0,1,3.519.651l11.33,7.021v-18.4a43.546,43.546,0,0,1,1.3-10.561,43.545,43.545,0,0,1,1.3,10.561v30.037l16.715-10.358a8.192,8.192,0,0,1,4.449-1.227,8.191,8.191,0,0,1-3.079,3.438L401.64,503.386V616.57h-2.6v-74.3l-12.7-7.87a4.926,4.926,0,0,1-2.15-2.862h0a4.926,4.926,0,0,1,3.52.651Z" transform="translate(-285.872 -293.391)" fill="#5a5a5a"/>
  <circle id="Ellipse_21" data-name="Ellipse 21" cx="46.06" cy="46.06" r="46.06" transform="translate(0 129.388)" fill="#e6e6e6"/>
  <path id="Path_51" data-name="Path 51" d="M261.208,540.442l-11.33,7.021V500l12.7-7.87a4.926,4.926,0,0,0,2.15-2.862h0a4.926,4.926,0,0,0-3.519.651l-11.33,7.021v-18.4a43.543,43.543,0,0,0-1.3-10.561,43.542,43.542,0,0,0-1.3,10.561V508.58l-16.715-10.358a8.191,8.191,0,0,0-4.449-1.227,8.191,8.191,0,0,0,3.079,3.438l18.085,11.206V620.212h2.6v-69.69l12.7-7.87a4.927,4.927,0,0,0,2.15-2.862h0A4.927,4.927,0,0,0,261.208,540.442Z" transform="translate(-202.703 -297.733)" fill="#5a5a5a"/>
  <circle id="Ellipse_22" data-name="Ellipse 22" cx="79.304" cy="79.304" r="79.304" transform="translate(0.215 0)" fill="#e6e6e6"/>
  <path id="Path_52" data-name="Path 52" d="M322.647,381.927l-19.508,12.088V312.3l21.866-13.55a8.482,8.482,0,0,0,3.7-4.927h0a8.482,8.482,0,0,0-6.059,1.121l-19.508,12.088V275.351a74.97,74.97,0,0,0-2.238-18.183,74.969,74.969,0,0,0-2.238,18.183v51.717l-28.779-17.834a14.1,14.1,0,0,0-7.66-2.113,14.1,14.1,0,0,0,5.3,5.919l31.137,19.295V509.47h4.477V399.282l21.866-13.549a8.482,8.482,0,0,0,3.7-4.927h0A8.482,8.482,0,0,0,322.647,381.927Z" transform="translate(-221.702 -186.818)" fill="#5a5a5a"/>
  <rect id="Rectangle_26" data-name="Rectangle 26" width="385.255" height="0.948" transform="translate(15.911 322.507)" fill="#3f3d56"/>
  <path id="Path_53" data-name="Path 53" d="M642.124,189.231h-1.076v-54a18.476,18.476,0,0,0-18.476-18.476H502.309a18.476,18.476,0,0,0-18.476,18.476v23.66h-.408a1.085,1.085,0,0,0-1.085,1.085v10.582a1.085,1.085,0,0,0,1.085,1.085h.408v10.591h-.5a1.085,1.085,0,0,0-1.085,1.085v20.025a1.085,1.085,0,0,0,1.085,1.085h.5V212.2h-.455a1.085,1.085,0,0,0-1.085,1.085V233.5a1.085,1.085,0,0,0,1.085,1.085h.455V417.793a18.476,18.476,0,0,0,18.476,18.476H622.572a18.476,18.476,0,0,0,18.476-18.476V227.961h1.076a1.085,1.085,0,0,0,1.085-1.085V190.317A1.085,1.085,0,0,0,642.124,189.231Z" transform="translate(-337.462 -112.941)" fill="#3f3d56"/>
  <path id="Path_54" data-name="Path 54" d="M639.332,141.316H621.046a2.073,2.073,0,0,1-2.071-2.07v-.792a2.073,2.073,0,0,1,2.071-2.07h18.286a2.073,2.073,0,0,1,2.071,2.07v.792A2.073,2.073,0,0,1,639.332,141.316Z" transform="translate(-409.4 -123.269)" fill="#fff"/>
  <circle id="Ellipse_23" data-name="Ellipse 23" cx="2.53" cy="2.53" r="2.53" transform="translate(235.083 13.053)" fill="#fff"/>
  <path id="Path_55" data-name="Path 55" d="M631.395,134.313H613.388v2.166A10.283,10.283,0,0,1,603.1,146.762H545.738a10.278,10.278,0,0,1-10.283-10.273v-2.175H518.571A12.486,12.486,0,0,0,506.085,146.8h0V424.7a12.486,12.486,0,0,0,12.486,12.486H631.395A12.482,12.482,0,0,0,643.877,424.7V146.8A12.482,12.482,0,0,0,631.4,134.313Z" transform="translate(-350.005 -122.18)" fill="#fff"/>
  <path id="Path_56" data-name="Path 56" d="M634.341,673.355H586.006a13.031,13.031,0,0,1,0-26.063h48.335a13.031,13.031,0,1,1,0,26.063Z" transform="translate(-385.198 -392.074)" fill="#a1c4b3"/>
  <path id="Path_57" data-name="Path 57" d="M641.721,466.407H555.477a4.5,4.5,0,1,1,0-9h86.245a4.5,4.5,0,0,1,0,9Z" transform="translate(-373.623 -292.167)" fill="#e6e6e6"/>
  <path id="Path_58" data-name="Path 58" d="M641.721,494.406H555.477a4.5,4.5,0,1,1,0-9h86.245a4.5,4.5,0,0,1,0,9Z" transform="translate(-373.623 -306.899)" fill="#e6e6e6"/>
  <path id="Path_59" data-name="Path 59" d="M641.721,522.406H555.477a4.5,4.5,0,1,1,0-9h86.245a4.5,4.5,0,0,1,0,9Z" transform="translate(-373.623 -321.631)" fill="#e6e6e6"/>
  <path id="Path_60" data-name="Path 60" d="M641.721,550.406H555.477a4.5,4.5,0,1,1,0-9h86.245a4.5,4.5,0,0,1,0,9Z" transform="translate(-373.623 -336.362)" fill="#e6e6e6"/>
  <path id="Path_61" data-name="Path 61" d="M582.962,578.406H555.477a4.5,4.5,0,1,1,0-9h27.485a4.5,4.5,0,1,1,0,9Z" transform="translate(-373.623 -351.094)" fill="#e6e6e6"/>
  <path id="Path_62" data-name="Path 62" d="M641.038,296.852H527.8a3.78,3.78,0,0,1-3.776-3.776V209.03a3.78,3.78,0,0,1,3.776-3.776H641.038a3.78,3.78,0,0,1,3.776,3.776v84.046a3.78,3.78,0,0,1-3.776,3.776Z" transform="translate(-359.442 -159.504)" fill="#e6e6e6"/>
  <g id="Group_4" data-name="Group 4" transform="translate(301.635 111.395)" opacity="0.1">
    <path id="Path_63" data-name="Path 63" d="M813.267,345.745v-1.962a14.807,14.807,0,0,0,0,1.521C813.263,345.451,813.267,345.6,813.267,345.745Z" transform="translate(-813.248 -343.783)"/>
  </g>
  <circle id="Ellipse_24" data-name="Ellipse 24" cx="12.434" cy="12.434" r="12.434" transform="translate(308.111 125.751)" fill="#ffb8b8"/>
  <path id="Path_64" data-name="Path 64" d="M908.691,588.709a4.5,4.5,0,0,0-.306-6.894l-1.7-15.06-9.442,2.577,4.6,13.554a4.525,4.525,0,0,0,6.846,5.822Z" transform="translate(-555.808 -349.701)" fill="#ffb8b8"/>
  <path id="Path_65" data-name="Path 65" d="M744.807,637.44l5.212-3.371-10.522-21.7L731.8,617.34Z" transform="translate(-385.025 -322.184)" fill="#ffb8b8"/>
  <path id="Path_66" data-name="Path 66" d="M0,0H19.506V7.537H7.255A7.255,7.255,0,0,1,0,.281V0Z" transform="translate(378.174 310.221) rotate(147.104)" fill="#2f2e41"/>
  <path id="Path_67" data-name="Path 67" d="M661.851,643.357h6.206l2.954-23.939h-9.16Z" transform="translate(-348.221 -325.895)" fill="#ffb8b8"/>
  <path id="Path_68" data-name="Path 68" d="M0,0H19.506V7.536H7.255A7.255,7.255,0,0,1,0,.282V0Z" transform="translate(331.806 323.225) rotate(180)" fill="#2f2e41"/>
  <path id="Path_69" data-name="Path 69" d="M890.913,452.418c-.826,2.688,2.1,5.613,3.045,8.254s2.215,5.183,2.726,7.947c.349,1.9,8.267,43.88,7.886,46.436a9.852,9.852,0,0,0-7.325.672,21.773,21.773,0,0,1-2.784-9.057,47.368,47.368,0,0,1,.054-5.671c.246-5.34-2.069-10.689-2.146-16.033a30.208,30.208,0,0,0-.438-5.529c-.253-1.255-.23-3.605-.5-4.857-.434-1.989,1.432-2.906,1.328-4.945l-.568-11.134C892.069,456.553,890.111,454.161,890.913,452.418Z" transform="translate(-552.374 -289.545)" fill="#2f2e41"/>
  <path id="Path_70" data-name="Path 70" d="M820.605,543.841c-2,3.113-6.2,3.787-9.135,6.017-4.49,3.427,6.964,80.43,10.746,94.109,9.978-1.5,10.327-1.492,11.474-2s2.185-39.616,4.61-47.678c4.537,4.276,18.818,41.028,21.831,49.174,11.973-2.993,0,0,15.465-3.991-.13-2.824-22.854-94.833-23.682-102.081C841.518,539.466,830.973,541.776,820.605,543.841Z" transform="translate(-510.137 -334.254)" fill="#2f2e41"/>
  <path id="Path_71" data-name="Path 71" d="M828.284,428.96c-1.232,3.651.445,17.857.568,21.051a71.608,71.608,0,0,1,0,8.708c-.426,5.022-1.92,10.078-.918,15.015.657,3.267,1.824,6.3,2.1,9.629.184,2.3.127,4.646.856,6.83,2.688-1.152,26.514-5.111,28.265-7.414-1.2-5.786-.038-11.76-.833-17.615-.461-3.375-1.6-6.623-2.139-9.982-.664-4.146-.384-8.446-1.593-12.474a35.913,35.913,0,0,0-2.545-5.9c-1.041-2.146-2.347-3.909-2.794-3.908C848.115,432.96,828.357,428.634,828.284,428.96Z" transform="translate(-519.162 -277.193)" fill="#fe7575"/>
  <path id="Path_72" data-name="Path 72" d="M801.294,515.941s4.131-8.243,4.338-12.958c.073-1.693,4.711-8.431,6.8-9.959,4.953-3.628,8.6-27.946,6.93-33.847-2.895-10.2-7.771-19.711-12.72-29.086a2.12,2.12,0,0,0-.691-.879c-1.006-.626-2.1.607-2.784,1.57-2.331,3.267-6.17,5.014-9.687,6.945s-7.114,4.5-8.178,8.37c-.714,2.6-.157,5.348.384,7.978s2.434,4.718,3.866,6.934c1.66,2.445,5.972,13.287,5.939,14.574.084,7.955.165,15.937-.8,23.838-.541,4.465-1.017,13.438-1.017,13.438Z" transform="translate(-496.733 -277.246)" fill="#2f2e41"/>
  <path id="Path_73" data-name="Path 73" d="M881.872,511.413c-7.606-17.311-7.179-37.011-12.013-55.286-1.436-5.425-3.356-10.877-3.01-16.478a3.346,3.346,0,0,1,1.109-2.687,2.722,2.722,0,0,1,2.576,0c.818.365,1.517.96,2.3,1.367,1.271.649,2.749.833,3.97,1.566,1.812,1.09,2.737,3.164,3.547,5.114,1.732,4.166,3.455,8.446,3.594,12.961.292,8.769-3.6,17.2-1.57,25.723a51.04,51.04,0,0,0,1.566,4.968,151.067,151.067,0,0,1,4.991,17.972C889.163,507.674,882.191,512.143,881.872,511.413Z" transform="translate(-539.792 -281.241)" fill="#2f2e41"/>
  <path id="Path_74" data-name="Path 74" d="M824.289,568.139a4.5,4.5,0,0,0-4.542-5.2l-10.726-10.707-5.767,7.908,12.053,7.719a4.525,4.525,0,0,0,8.983.275Z" transform="translate(-506.355 -342.063)" fill="#ffb8b8"/>
  <path id="Path_75" data-name="Path 75" d="M775.524,493.314c.177,1.609,13.689,18.574,21.032,24.111-.426-2.185,5.329-9.31,7.191-10.424-4.653-4.39-14.376-14.571-14.7-15.127-1.052-2.031,0-4.457.918-6.557,2.891-6.676,4.254-14.251,2.4-21.289-.7-2.641-1.92-5.287-4.143-6.911a3.382,3.382,0,0,0-3.363-.653,3.736,3.736,0,0,0-1.152,1.033C780.266,461.687,775.394,492.121,775.524,493.314Z" transform="translate(-491.764 -291.553)" fill="#2f2e41"/>
  <path id="Path_76" data-name="Path 76" d="M828.522,388.606c.726-3.08-2.944-9.708-2.218-12.788.492-2.086,5.4-.668,6.541-2.48a6.579,6.579,0,0,1,5.205-3.3c2.463-.028,4.887,1.8,7.22,1.01,2.359-.8,3.113-4.029,2.07-6.291s-3.29-3.7-5.51-4.832c-3.78-1.923-8.182-3.328-12.228-2.055a20.1,20.1,0,0,0-6.47,4.066,22.546,22.546,0,0,0-4.9,4.973c-2.471,3.855-2.321,9.049-.21,13.112a19.709,19.709,0,0,0,10.2,8.775" transform="translate(-513.277 -239.541)" fill="#2f2e41"/>
</svg>
