<svg id="facebook_icon" xmlns="http://www.w3.org/2000/svg" width="57.163" height="56.371" viewBox="0 0 57.163 56.371">
  <g id="layer1" transform="translate(20.267 11.294)">
    <path id="path863" d="M51.009,24.722v6.071h4.385V46.257h6.461V30.56h6.227V24.774h-6.3V22.205a3.454,3.454,0,0,1,3.01-3.788H68.03V12.424H63.956s-3.762.363-5.111,1.686a8.242,8.242,0,0,0-2.569,3.581,18.964,18.964,0,0,0-.882,5.708c.026,1.609,0,1.349,0,1.349Z" transform="translate(-51.009 -12.424)" fill="#161616"/>
  </g>
  <path id="path87" d="M117.982,137.9c.189-1.338.334-2.683.575-4.011,1.365-7.522,6.69-12.64,14.3-12.9,9.168-.315,18.363-.332,27.53,0a14.732,14.732,0,0,1,14.548,14.725q.413,13.2,0,26.43a14.731,14.731,0,0,1-14.547,14.725c-9.166.331-18.364.339-27.53,0-8.289-.312-14.018-6.462-14.573-14.764-.048-.718-.2-1.43-.307-2.145V137.9Zm28.589,34.052c4.195,0,8.394.126,12.584-.029,6.569-.244,10.609-4.164,10.762-10.726q.285-12.265,0-24.543c-.153-6.561-4.2-10.573-10.762-10.712q-12.5-.264-25.01,0c-6.516.137-10.568,4.067-10.745,10.556q-.337,12.421,0,24.856c.177,6.488,4.229,10.328,10.746,10.569,4.137.154,8.284.029,12.426.029Zm0,0" transform="translate(-117.982 -120.745)" fill="#161616"/>
</svg>
