<svg xmlns="http://www.w3.org/2000/svg" width="819.669" height="857.269" viewBox="0 0 819.669 857.269">
  <g id="frontsvg" transform="translate(-987.672 -214.213)">
    <circle id="Ellipse_1" data-name="Ellipse 1" cx="80.179" cy="80.179" r="80.179" transform="translate(1311.121 368.922)" fill="#d49a9a"/>
    <path id="Path_1" data-name="Path 1" d="M582.585,260.562s15.106,113.878-8.134,126.66,138.279,13.944,138.279,13.944-36.022-98.772-19.753-128.984Z" transform="translate(748.87 228.628)" fill="#d49a9a"/>
    <path id="Path_2" data-name="Path 2" d="M839.583,395.013,826.15,456.181l-28.4,129.412-.85,7.087-9.8,82.048-6.52,54.506L776.2,765.846c-26.582,13.662-45.848,23.093-45.848,23.093S728.7,780.631,726.025,770c-18.656,5.593-53.176,14.872-82.429,16.726,10.653,11.874,15.548,23.028,8.908,31.26-20.04,24.816-102.775-27.171-131.712-46.557a78.33,78.33,0,0,0-.763,14.022L497.883,768.42l2.192-39.187,3.7-66.3,4.645-83.149a87.313,87.313,0,0,1-3.674-10.936c-6.782-24.118-15.014-72.278-21.327-112.664-5.081-32.5-8.9-59.968-9.7-65.812-.109-.763-.164-1.156-.164-1.156l122.586-54.168c8.712,20.2,49.392,26.277,49.392,26.277,33.7-2.322,60.121-20.095,60.121-20.095Z" transform="translate(739.962 235.357)" fill="#d0cde1"/>
    <path id="Path_3" data-name="Path 3" d="M729.782,733.118s-5.19,1.777-13.629,4.3c-18.656,5.593-53.176,14.872-82.429,16.726-25.187,1.614-46.47-2.268-50.363-18.7-1.668-7.065.7-12.877,5.855-17.652,15.4-14.273,55.607-19.386,87.5-21.142,9.006-.491,17.336-.72,24.271-.807,11.776-.153,19.5.087,19.5.087l.185.72Z" transform="translate(749.834 267.944)" fill="#a0616a"/>
    <path id="Path_4" data-name="Path 4" d="M577.191,158.647l-14.992-6s31.346-34.51,74.958-31.509l-12.266-13.5s29.983-12,57.24,19.506c14.329,16.563,30.907,36.033,41.242,57.965h16.055l-6.7,14.754,23.452,14.754-24.072-2.65a82.451,82.451,0,0,1,.653,24.472,31.664,31.664,0,0,1-11.594,20.714h0s-18.592-38.484-18.592-44.486v15s-14.991-13.5-14.991-22.506l-8.177,10.5-4.089-16.5-50.426,16.5,8.177-13.5-31.346,4.5,12.266-16.5s-35.434,19.506-36.8,36.01-11.734,32.144-11.734,32.144S537.668,181.154,577.191,158.647Z" transform="translate(747.407 214.611)" fill="#262626"/>
    <path id="Path_5" data-name="Path 5" d="M907.479,671.253c-8.167,8.854-28.4,22.188-52.936,36.624-9.126,5.364-18.841,10.893-28.752,16.388-23.649,13.117-48.411,26.113-68.844,36.613C730.365,774.54,711.1,783.971,711.1,783.971s-1.657-8.308-4.329-18.939c-3.576-14.229-8.962-32.623-14.578-40.768-.2-.284-.393-.545-.589-.807-1.635-2.148-3.282-3.4-4.906-3.4l81.143-50.3L802.9,648.018l-25.263-60.306-31.685-75.647,19.124-60.851L784.3,390.045h36.025s11.928,26.037,27.182,62.345c2.279,5.43,4.634,11.089,7.033,16.933C885.923,545.646,925.044,652.226,907.479,671.253Z" transform="translate(759.216 240.325)" fill="#d0cde1"/>
    <path id="Path_6" data-name="Path 6" d="M649.422,786.254C629.382,811.07,546.647,759.083,517.71,739.7c-6.3-4.22-10.053-6.891-10.053-6.891l26.473-35.3,8.385-11.176s7.5,3.98,18.59,10.456c.4.24.807.48,1.221.72,9.562,5.615,21.567,12.953,33.68,21.142,16.715,11.307,33.615,24.205,44.507,36.352C651.167,766.868,656.062,778.022,649.422,786.254Z" transform="translate(743.043 267.089)" fill="#a0616a"/>
    <path id="Path_7" data-name="Path 7" d="M572.529,723.93a52.1,52.1,0,0,0-8.832.72c-25.067,4.307-32.459,27-34.564,42.2a78.323,78.323,0,0,0-.763,14.022l-22.145-17.031-8.068-6.2c-19.419-6.771-36.722-18.8-51.725-32.983A260.021,260.021,0,0,1,411.6,683.337a364.327,364.327,0,0,1-26.953-46.23,34,34,0,0,1-.469-28.839L411.6,547.154l40.081-89.32q.441-3.189.97-6.237c7.949-45.576,29.243-65.813,29.243-65.813h16.268L509.039,451.6l13.52,81.764-9.475,30.9L491.19,635.624l20.923,22.723Z" transform="translate(731.619 239.94)" fill="#d0cde1"/>
    <path id="Path_8" data-name="Path 8" d="M576.607,524.479,590.514,540.7c5.167-.985,10.563-2.143,16.12-3.443l-3.994-12.782,9.767,11.394c58.875-14.481,131.851-42.634,131.851-42.634s-78.784,5.777-137.609-7.075c-26.027-5.686-52.806,7.216-63.486,31.622-6.208,14.186-5.233,26.476,16.785,26.476a145.423,145.423,0,0,0,22.191-2.087Z" transform="translate(745.952 248.888)" fill="#a1c4b3"/>
    <path id="Path_9" data-name="Path 9" d="M907.1,767.294v6.618a14.542,14.542,0,0,1-.992,5.31,14.907,14.907,0,0,1-1.058,2.181,14.651,14.651,0,0,1-12.593,7.153H405.57a14.651,14.651,0,0,1-12.593-7.153,14.91,14.91,0,0,1-1.058-2.181,14.545,14.545,0,0,1-.992-5.31v-6.618a14.639,14.639,0,0,1,14.643-14.643h28.065v-3.086a.609.609,0,0,1,.611-.611h14.643a.61.61,0,0,1,.611.611v3.086h9.148v-3.086a.61.61,0,0,1,.611-.611H473.9a.61.61,0,0,1,.611.611v3.086h9.159v-3.086a.61.61,0,0,1,.611-.611h14.643a.61.61,0,0,1,.611.611v3.086h9.148v-3.086a.61.61,0,0,1,.611-.611h14.643a.61.61,0,0,1,.611.611v3.086H533.7v-3.086a.61.61,0,0,1,.611-.611h14.643a.61.61,0,0,1,.611.611v3.086h9.159v-3.086a.609.609,0,0,1,.611-.611h14.643a.61.61,0,0,1,.611.611v3.086h9.148v-3.086a.61.61,0,0,1,.611-.611h114.7a.61.61,0,0,1,.611.611v3.086h9.159v-3.086a.61.61,0,0,1,.611-.611h14.643a.617.617,0,0,1,.611.611v3.086h9.148v-3.086a.61.61,0,0,1,.611-.611H749.08a.61.61,0,0,1,.611.611v3.086h9.148v-3.086a.61.61,0,0,1,.611-.611h14.643a.61.61,0,0,1,.611.611v3.086h9.159v-3.086a.61.61,0,0,1,.611-.611h14.643a.607.607,0,0,1,.6.611v3.086h9.159v-3.086a.61.61,0,0,1,.611-.611h14.643a.61.61,0,0,1,.611.611v3.086h9.148v-3.086a.61.61,0,0,1,.611-.611h14.643a.61.61,0,0,1,.611.611v3.086h42.708A14.639,14.639,0,0,1,907.1,767.294Z" transform="translate(732.499 272.746)" fill="#3f3d56"/>
    <rect id="Rectangle_2" data-name="Rectangle 2" width="799.214" height="2.181" transform="translate(987.965 1063.969)" fill="#262626"/>
    <path id="Path_10" data-name="Path 10" d="M866.348,510.455H684.87v-3.74H602.58v3.74H420.354a12.276,12.276,0,0,0-12.276,12.276v248.5a12.276,12.276,0,0,0,12.276,12.276H866.348a12.276,12.276,0,0,0,12.276-12.276v-248.5a12.276,12.276,0,0,0-12.276-12.276Z" transform="translate(734.048 250.864)" fill="#262626"/>
    <circle id="Ellipse_2" data-name="Ellipse 2" cx="27.258" cy="27.258" r="27.258" transform="translate(1350.498 820.818)" fill="none" stroke="#d0cde1" stroke-miterlimit="10" stroke-width="2"/>
    <circle id="Ellipse_3" data-name="Ellipse 3" cx="27.258" cy="27.258" r="27.258" transform="translate(1341.775 830.631)" fill="#d0cde1"/>
    <rect id="Rectangle_3" data-name="Rectangle 3" width="30.529" height="30.529" transform="translate(1003.713 1040.953)" fill="#d0cde1"/>
    <path id="Path_11" data-name="Path 11" d="M292.136,744.612v37.071h37.071V744.612Zm35.458,35.458H293.739V746.226h33.855Z" transform="translate(723.575 272.354)" fill="#3f3d56"/>
    <rect id="Rectangle_4" data-name="Rectangle 4" width="30.529" height="30.529" transform="translate(1710.249 1040.953)" fill="#d0cde1"/>
    <path id="Path_12" data-name="Path 12" d="M940.136,744.612v37.071h37.071V744.612Zm35.458,35.458H941.739V746.226h33.855Z" transform="translate(782.11 272.354)" fill="#3f3d56"/>
    <ellipse id="Ellipse_4" data-name="Ellipse 4" cx="68.226" cy="68.226" rx="68.226" ry="68.226" transform="translate(1626.105 259.698)" fill="#a1c4b3"/>
    <path id="Path_13" data-name="Path 13" d="M309.612,161.783a73.744,73.744,0,0,0-18.607,0,72.55,72.55,0,0,0-59.863,50.487A71.565,71.565,0,0,0,228,230.9c-.031.879-.052,1.768-.052,2.657a72.434,72.434,0,0,0,72.361,72.361c1.54,0,3.08-.052,4.6-.145a71.567,71.567,0,0,0,10.606-1.468,72.37,72.37,0,0,0-5.9-142.52Zm13.345,138.324h-.01a69.574,69.574,0,0,1-18.039,3.587c-1.52.1-3.06.155-4.6.155a70.38,70.38,0,0,1-70.294-70.294c0-.889.021-1.778.052-2.657a70.294,70.294,0,1,1,92.891,69.208Z" transform="translate(1408.495 85.065)" fill="#262626"/>
    <rect id="Rectangle_5" data-name="Rectangle 5" width="2.067" height="14.472" transform="translate(1707.77 252.461)" fill="#262626"/>
    <rect id="Rectangle_6" data-name="Rectangle 6" width="2.067" height="14.472" transform="translate(1661.292 272.57) rotate(-45)" fill="#262626"/>
    <rect id="Rectangle_7" data-name="Rectangle 7" width="2.067" height="14.472" transform="translate(1642.645 319.654) rotate(-90)" fill="#262626"/>
    <rect id="Rectangle_8" data-name="Rectangle 8" width="2.067" height="14.472" transform="translate(1662.753 366.131) rotate(-135)" fill="#262626"/>
    <rect id="Rectangle_9" data-name="Rectangle 9" width="2.067" height="14.472" transform="translate(1746.082 282.801) rotate(-135)" fill="#262626"/>
    <rect id="Rectangle_10" data-name="Rectangle 10" width="2.067" height="14.472" transform="translate(1760.49 319.654) rotate(-90)" fill="#262626"/>
    <rect id="Rectangle_11" data-name="Rectangle 11" width="2.067" height="14.472" transform="translate(1744.622 355.898) rotate(-45)" fill="#262626"/>
    <rect id="Rectangle_12" data-name="Rectangle 12" width="2.067" height="14.472" transform="translate(1707.77 370.306)" fill="#262626"/>
    <path id="Path_14" data-name="Path 14" d="M314.356,240.366a5.169,5.169,0,0,0-6.2,0,5.321,5.321,0,0,0-1.478,1.737,5.169,5.169,0,1,0,7.681-1.737Zm-3.1,7.236a3.11,3.11,0,0,1-3.1-3.1,3.157,3.157,0,0,1,.548-1.757,3.1,3.1,0,1,1,2.553,4.859Z" transform="translate(1397.549 74.12)" fill="#262626"/>
    <rect id="Rectangle_13" data-name="Rectangle 13" width="18.607" height="18.607" transform="translate(1699.5 228.686)" fill="#262626"/>
    <ellipse id="Ellipse_5" data-name="Ellipse 5" cx="24.81" cy="8.787" rx="24.81" ry="8.787" transform="translate(1683.994 214.213)" fill="#262626"/>
    <rect id="Rectangle_14" data-name="Rectangle 14" width="6.202" height="35.147" transform="translate(1705.702 279.338)" fill="#262626"/>
    <rect id="Rectangle_15" data-name="Rectangle 15" width="194.341" height="2.067" transform="translate(1613 387.831)" fill="#3f3d56"/>
    <path id="Path_15" data-name="Path 15" d="M358.946,711.589c1.017,34.836-19.337,47.6-44.882,48.349q-.89.026-1.772.032-1.777.014-3.519-.059c-23.1-.959-41.389-13.222-42.335-45.62-.979-33.527,40.636-77.09,43.758-80.312l.006,0,.179-.184S357.928,676.755,358.946,711.589Z" transform="translate(721.252 262.343)" fill="#d0cde1"/>
    <path id="Path_16" data-name="Path 16" d="M310.115,754.657l16.227-24.131-16.194,26.727.034,2.715q-1.777.013-3.519-.059l.805-34.9-.022-.269.03-.052.077-3.3-17.77-25.8,17.749,23.332.063.7.608-26.371-15.349-26.749,15.392,22.116-.161-54.634V633.8l.005.179,1.019,43.059L323.1,659.543l-13.943,21.2.305,23.588,12.872-23.021L309.508,707.8l.17,13.116,18.72-32.068-18.663,36.644Z" transform="translate(723.362 262.344)" fill="#3f3d56"/>
    <path id="Path_17" data-name="Path 17" d="M1006.946,711.589c1.017,34.836-19.337,47.6-44.882,48.349q-.89.026-1.772.032-1.777.014-3.519-.059c-23.1-.959-41.389-13.222-42.335-45.62-.979-33.527,40.636-77.09,43.758-80.312l.006,0,.179-.184S1005.928,676.755,1006.946,711.589Z" transform="translate(779.787 262.343)" fill="#d0cde1"/>
    <path id="Path_18" data-name="Path 18" d="M958.115,754.657l16.227-24.131-16.194,26.727.034,2.715q-1.777.013-3.519-.059l.8-34.9-.022-.269.03-.052.077-3.3-17.77-25.8,17.749,23.332.063.7.608-26.371-15.349-26.749,15.392,22.116-.161-54.634V633.8l.005.179,1.019,43.059L971.1,659.543l-13.943,21.2.305,23.588,12.872-23.021L957.508,707.8l.17,13.116,18.72-32.068-18.663,36.644Z" transform="translate(781.898 262.344)" fill="#3f3d56"/>
  </g>
</svg>
