<svg id="g1128" xmlns="http://www.w3.org/2000/svg" width="102.937" height="144.912" viewBox="0 0 102.937 144.912">
  <g id="g855" transform="translate(0 0)">
    <path id="path853" d="M113.607,135.5H32.631a10.98,10.98,0,0,1-10.98-10.98V21.6a10.98,10.98,0,0,1,10.98-10.98h80.976a10.98,10.98,0,0,1,10.98,10.98V124.52A10.98,10.98,0,0,1,113.607,135.5Z" transform="translate(-21.651 -10.624)" fill="#a1c4b3"/>
  </g>
  <g id="g863" transform="translate(0 0)">
    <path id="path861" d="M113.617,10.624h-3.371V110.19a10.97,10.97,0,0,1-10.97,10.97H21.651v3.371a10.97,10.97,0,0,0,10.97,10.97H34.6a2.194,2.194,0,0,1,2.194,2.194v16.219a1.62,1.62,0,0,0,2.765,1.145l17.952-17.952a5.485,5.485,0,0,1,3.879-1.606h52.227a10.97,10.97,0,0,0,10.97-10.97V21.594a10.971,10.971,0,0,0-10.971-10.97Z" transform="translate(-21.651 -10.624)" fill="#7a9789"/>
  </g>
  <g id="g877" transform="translate(20.962 19.44)">
    <path id="path875" d="M54.64,35.218a55.167,55.167,0,0,1,28.9,8l1.1-1.935V36.151A22.753,22.753,0,0,0,61.885,13.4H47.4A22.753,22.753,0,0,0,24.642,36.151v5.128l1.1,1.935a55.163,55.163,0,0,1,28.9-8Z" transform="translate(-24.642 -13.397)" fill="#2b4d66"/>
  </g>
  <path id="path879" d="M98.979,82.153H96.426a.549.549,0,0,1-.549-.549V71.185A10.98,10.98,0,0,0,84.9,60.2H46.859a10.98,10.98,0,0,0-10.98,10.98V81.6a.549.549,0,0,1-.549.549H32.777a4.941,4.941,0,0,0-4.941,4.941v3.133a10.493,10.493,0,0,0,8.187,10.231,1.076,1.076,0,0,1,.79.8,30.662,30.662,0,0,0,8.539,14.7l6.975,6.671a19.6,19.6,0,0,0,27.1,0l6.975-6.672a30.666,30.666,0,0,0,8.539-14.7,1.075,1.075,0,0,1,.79-.8,10.492,10.492,0,0,0,8.187-10.231V87.093a4.943,4.943,0,0,0-4.942-4.941Z" transform="translate(-14.915 -23.862)" fill="#fca"/>
  <path id="path895" d="M32.507,66.478a.789.789,0,0,0-.743,1.049,11.571,11.571,0,0,0,21.852,0,.789.789,0,0,0-.743-1.049Z" transform="translate(8.422 13.843)" fill="#ff8080"/>
  <circle id="circle899" cx="4.523" cy="4.523" r="4.523" transform="translate(59.661 59.372)"/>
  <circle id="circle903" cx="4.523" cy="4.523" r="4.523" transform="translate(33.516 59.372)"/>
</svg>
