<svg id="g1144" xmlns="http://www.w3.org/2000/svg" width="105.701" height="148.435" viewBox="0 0 105.701 148.435">
  <g id="g851" transform="translate(0 0)">
    <path id="path849" d="M98.189,132.021H15.038A11.275,11.275,0,0,1,3.763,120.746V15.065A11.275,11.275,0,0,1,15.038,3.79H98.189a11.275,11.275,0,0,1,11.275,11.275v105.68A11.275,11.275,0,0,1,98.189,132.021Z" transform="translate(-3.763 -3.79)" fill="#fe7575"/>
  </g>
  <g id="g859" transform="translate(0 0)">
    <path id="path857" d="M98.2,3.79H94.738V106.03a11.265,11.265,0,0,1-11.265,11.265H3.763v3.461a11.265,11.265,0,0,0,11.265,11.265h54a5.634,5.634,0,0,1,3.983,1.65l18.064,18.064a1.663,1.663,0,0,0,2.84-1.176V134.274a2.253,2.253,0,0,1,2.253-2.253H98.2a11.265,11.265,0,0,0,11.265-11.265V15.055A11.265,11.265,0,0,0,98.2,3.79Z" transform="translate(-3.763 -3.79)" fill="#f65454"/>
  </g>
  <g id="g867" transform="translate(14.014 34.617)">
    <path id="path865" d="M78.763,33.918H75.578V20.046l-1.128-5.132c0-3.487-1.7-6.315-5.187-6.315H20.284C16.8,8.6,15.1,11.426,15.1,14.914l-1.128,5.132V33.918H10.784A5.073,5.073,0,0,0,5.71,38.991v3.217a10.775,10.775,0,0,0,9.051,10.63A31.493,31.493,0,0,0,23.7,68.628l7.162,6.85a20.131,20.131,0,0,0,27.83,0l7.162-6.85a31.493,31.493,0,0,0,8.935-15.79,10.775,10.775,0,0,0,9.051-10.63V38.991a5.074,5.074,0,0,0-5.074-5.074Z" transform="translate(-5.71 -8.599)" fill="#ffcbbe"/>
  </g>
  <g id="g873" transform="translate(22.273 21.17)">
    <g id="g871" transform="translate(0 0)">
      <path id="path869" d="M37.661,23.5a60.755,60.755,0,0,1,30.8,8.21V13.045a6.315,6.315,0,0,0-6.315-6.315H13.172a6.315,6.315,0,0,0-6.315,6.315V31.71a60.752,60.752,0,0,1,30.8-8.21Z" transform="translate(-6.858 -6.731)" fill="#854a36"/>
    </g>
  </g>
  <path id="path887" d="M35.57,59.636H14.639a.811.811,0,0,0-.764,1.078,11.893,11.893,0,0,0,22.459,0,.812.812,0,0,0-.764-1.078Z" transform="translate(27.379 22.787)" fill="#ff8080"/>
  <path id="path889" d="M21.265,56.645a4.648,4.648,0,1,0,4.648,4.648A4.648,4.648,0,0,0,21.265,56.645Z" transform="translate(44.656 4.248)"/>
  <path id="path891" d="M22.18,61.293a4.648,4.648,0,1,0-4.648,4.648A4.648,4.648,0,0,0,22.18,61.293Z" transform="translate(21.516 4.248)"/>
</svg>
