<svg id="Insta_icon" xmlns="http://www.w3.org/2000/svg" width="57.163" height="56.371" viewBox="0 0 57.163 56.371">
  <g id="g93">
    <path id="path87" d="M117.982,137.9c.189-1.338.334-2.683.575-4.011,1.365-7.522,6.69-12.64,14.3-12.9,9.168-.315,18.363-.332,27.53,0a14.732,14.732,0,0,1,14.548,14.725q.413,13.2,0,26.43a14.731,14.731,0,0,1-14.547,14.725c-9.166.331-18.364.339-27.53,0-8.289-.312-14.018-6.462-14.573-14.764-.048-.718-.2-1.43-.307-2.145V137.9Zm28.589,34.052c4.195,0,8.394.126,12.584-.029,6.569-.244,10.609-4.164,10.762-10.726q.285-12.265,0-24.543c-.153-6.561-4.2-10.573-10.762-10.712q-12.5-.264-25.01,0c-6.516.137-10.568,4.067-10.745,10.556q-.337,12.421,0,24.856c.177,6.488,4.229,10.328,10.746,10.569,4.137.154,8.284.029,12.426.029Zm0,0" transform="translate(-117.982 -120.745)" fill="#161616"/>
    <path id="path89" d="M230.446,215.884a14.566,14.566,0,1,0,14.567,14.566A14.567,14.567,0,0,0,230.446,215.884Zm0,24.117A9.551,9.551,0,1,1,240,230.45,9.551,9.551,0,0,1,230.446,240Zm0,0" transform="translate(-201.864 -202.264)" fill="#161616"/>
    <path id="path91" d="M408.044,190.5a3.465,3.465,0,1,1-3.465-3.466A3.465,3.465,0,0,1,408.044,190.5Zm0,0" transform="translate(-360.58 -177.542)" fill="#161616"/>
  </g>
</svg>
