<svg id="twitter_icon" xmlns="http://www.w3.org/2000/svg" width="57.163" height="56.371" viewBox="0 0 57.163 56.371">
  <path id="path87" d="M117.982,137.9c.189-1.338.334-2.683.575-4.011,1.365-7.522,6.69-12.64,14.3-12.9,9.168-.315,18.363-.332,27.53,0a14.732,14.732,0,0,1,14.548,14.725q.413,13.2,0,26.43a14.731,14.731,0,0,1-14.547,14.725c-9.166.331-18.364.339-27.53,0-8.289-.312-14.018-6.462-14.573-14.764-.048-.718-.2-1.43-.307-2.145V137.9Zm28.589,34.052c4.195,0,8.394.126,12.584-.029,6.569-.244,10.609-4.164,10.762-10.726q.285-12.265,0-24.543c-.153-6.561-4.2-10.573-10.762-10.712q-12.5-.264-25.01,0c-6.516.137-10.568,4.067-10.745,10.556q-.337,12.421,0,24.856c.177,6.488,4.229,10.328,10.746,10.569,4.137.154,8.284.029,12.426.029Zm0,0" transform="translate(-117.982 -120.745)" fill="#161616"/>
  <path id="path23" d="M98.162,102.733a12.912,12.912,0,0,1-3.682,1.022l-.015-.086a6.852,6.852,0,0,0,2.717-3.709,13.717,13.717,0,0,1-3.279,1.371,9.461,9.461,0,0,1-1.156.237A7.138,7.138,0,0,0,80.5,106.554c0,.142,0,.283.013.423a6.883,6.883,0,0,0,.13,1,19.951,19.951,0,0,1-14.5-7.243s-3.178,5.545,2.165,9.332a7.443,7.443,0,0,1-3.314-.879s-.338,5.343,5.816,7.033a6.754,6.754,0,0,1-3.246.068,6.884,6.884,0,0,0,6.492,4.937,14.222,14.222,0,0,1-10.216,3.041,20.171,20.171,0,0,0,30.94-17.052q0-.208,0-.417c0-.082,0-.164,0-.248,0-.058,0-.116,0-.174a12.621,12.621,0,0,0,3.388-3.647Zm0,0" transform="translate(-50.25 -84.628)" fill="#161616"/>
</svg>
